<?xml version="1.0" encoding="UTF-8"?>
<svg id="Layer_1" data-name="Layer 1" xmlns="http://www.w3.org/2000/svg" xmlns:xlink="http://www.w3.org/1999/xlink" viewBox="0 0 1000 454">
  <defs>
    <style>
      .cls-1 {
        fill: #f4f4f4;
      }

      .cls-2 {
        fill: url(#linear-gradient);
      }
    </style>
    <linearGradient id="linear-gradient" x1="76.67" y1="148.23" x2="115.41" y2="107.33" gradientUnits="userSpaceOnUse">
      <stop offset="0" stop-color="#7d51fe"/>
      <stop offset=".04" stop-color="#7564fe"/>
      <stop offset=".13" stop-color="#6393fe"/>
      <stop offset=".23" stop-color="#54b8fe"/>
      <stop offset=".31" stop-color="#4ad2fe"/>
      <stop offset=".39" stop-color="#44e2fe"/>
      <stop offset=".45" stop-color="#42e8ff"/>
      <stop offset=".5" stop-color="#48e9ef"/>
      <stop offset=".61" stop-color="#5becc7"/>
      <stop offset=".75" stop-color="#78f286"/>
      <stop offset=".92" stop-color="#a1fa2d"/>
      <stop offset="1" stop-color="#b6fe00"/>
    </linearGradient>
  </defs>
  <rect class="cls-2" x="61.83" y="106" width="56.33" height="56.33"/>
  <rect class="cls-1" x="61.83" y="218.66" width="56.33" height="168.99"/>
  <polygon class="cls-1" points="230.82 331.32 343.48 331.32 343.48 387.65 174.49 387.65 174.49 106 230.82 106 230.82 162.33 343.48 162.33 343.48 218.66 230.82 218.66 230.82 331.32"/>
  <path class="cls-1" d="m568.8,106v56.33h-168.99v225.32h225.32V106h-56.33Zm0,225.32h-112.66v-112.66h112.66v112.66Z"/>
  <polygon class="cls-1" points="737.79 331.32 850.45 331.32 850.45 387.65 681.46 387.65 681.46 106 737.79 106 737.79 162.33 850.45 162.33 850.45 218.66 737.79 218.66 737.79 331.32"/>
  <rect class="cls-1" x="906.78" y="331.32" width="56.33" height="56.33"/>
</svg>