<?xml version="1.0" encoding="UTF-8"?>
<svg id="Layer_1" data-name="Layer 1" xmlns="http://www.w3.org/2000/svg" viewBox="0 0 1000 454">
  <defs>
    <style>
      .cls-1 {
        stroke: #252835;
      }

      .cls-1, .cls-2 {
        fill: #080b16;
        stroke-miterlimit: 10;
      }

      .cls-2 {
        stroke: #080b16;
      }
    </style>
  </defs>
  <g>
    <path class="cls-1" d="m626.56,243.41v-22.83h2.84v22.83h-2.84Z"/>
    <path class="cls-1" d="m635.94,243.41v-16.53h2.57v2.67c1.33-1.75,3.25-3.01,5.51-3.01v2.64c-.31-.07-.62-.1-1.03-.1-1.57,0-3.73,1.3-4.48,2.64v11.71h-2.57Z"/>
    <path class="cls-1" d="m658.87,243.41v-1.88c-1.37,1.51-3.25,2.29-5.48,2.29-2.81,0-5.78-1.88-5.78-5.48s2.98-5.44,5.78-5.44c2.26,0,4.14.72,5.48,2.26v-2.98c0-2.22-1.78-3.49-4.18-3.49-1.99,0-3.59.72-5.07,2.29l-1.2-1.78c1.78-1.85,3.9-2.74,6.61-2.74,3.49,0,6.4,1.57,6.4,5.58v11.36h-2.57Zm0-3.49v-3.11c-.99-1.37-2.74-2.05-4.55-2.05-2.4,0-4.07,1.51-4.07,3.63s1.68,3.59,4.07,3.59c1.81,0,3.56-.68,4.55-2.05Z"/>
    <path class="cls-1" d="m666.81,235.13c0-5.37,3.01-8.66,7.36-8.66,2.33,0,4.38,1.2,5.54,2.87v-2.46h2.57v22.83h-2.57v-8.79c-1.33,1.85-3.32,2.91-5.54,2.91-4.35,0-7.36-3.35-7.36-8.69Zm12.9,3.73v-7.46c-.86-1.44-2.88-2.64-4.93-2.64-3.32,0-5.27,2.7-5.27,6.37s1.95,6.4,5.27,6.4c2.05,0,4.07-1.23,4.93-2.67Z"/>
    <path class="cls-1" d="m704.63,243.41v-20.3h-7.22v-2.53h17.32v2.53h-7.26v20.3h-2.84Z"/>
    <path class="cls-1" d="m714.79,235.13c0-4.79,3.42-8.66,8.15-8.66,5,0,7.94,3.9,7.94,8.86v.65h-13.38c.21,3.11,2.4,5.72,5.96,5.72,1.88,0,3.8-.75,5.1-2.09l1.23,1.68c-1.64,1.64-3.87,2.53-6.57,2.53-4.89,0-8.42-3.53-8.42-8.69Zm8.11-6.54c-3.53,0-5.27,2.98-5.41,5.51h10.85c-.03-2.46-1.68-5.51-5.44-5.51Z"/>
    <path class="cls-1" d="m735.36,235.13c0-4.89,3.32-8.66,8.25-8.66,3.01,0,4.79,1.23,6.06,2.87l-1.71,1.57c-1.09-1.51-2.5-2.16-4.21-2.16-3.53,0-5.72,2.7-5.72,6.37s2.19,6.4,5.72,6.4c1.71,0,3.11-.68,4.21-2.16l1.71,1.57c-1.27,1.64-3.05,2.88-6.06,2.88-4.93,0-8.25-3.76-8.25-8.69Z"/>
    <path class="cls-1" d="m765.75,243.41v-10.88c0-2.91-1.51-3.76-3.73-3.76-1.99,0-3.9,1.23-4.89,2.57v12.08h-2.57v-22.83h2.57v8.69c1.16-1.37,3.42-2.81,5.92-2.81,3.46,0,5.27,1.68,5.27,5.27v11.67h-2.57Z"/>
    <path class="cls-1" d="m785.91,243.41v-10.82c0-2.91-1.47-3.83-3.7-3.83-2.02,0-3.94,1.23-4.89,2.57v12.08h-2.57v-16.53h2.57v2.4c1.16-1.37,3.42-2.81,5.89-2.81,3.46,0,5.27,1.75,5.27,5.34v11.6h-2.57Z"/>
    <path class="cls-1" d="m793.95,235.13c0-4.79,3.15-8.66,8.18-8.66s8.18,3.87,8.18,8.66-3.15,8.69-8.18,8.69-8.18-3.9-8.18-8.69Zm13.66,0c0-3.35-1.95-6.37-5.48-6.37s-5.51,3.01-5.51,6.37,1.99,6.4,5.51,6.4,5.48-3.01,5.48-6.4Z"/>
    <path class="cls-1" d="m815.79,243.41v-22.83h2.57v22.83h-2.57Z"/>
    <path class="cls-1" d="m823.83,235.13c0-4.79,3.15-8.66,8.18-8.66s8.18,3.87,8.18,8.66-3.15,8.69-8.18,8.69-8.18-3.9-8.18-8.69Zm13.66,0c0-3.35-1.95-6.37-5.48-6.37s-5.51,3.01-5.51,6.37,1.99,6.4,5.51,6.4,5.48-3.01,5.48-6.4Z"/>
    <path class="cls-1" d="m845.63,247.65l1.3-1.92c1.37,1.64,3.01,2.26,5.37,2.26,2.74,0,5.3-1.33,5.3-4.96v-2.36c-1.2,1.68-3.22,2.94-5.54,2.94-4.31,0-7.36-3.22-7.36-8.56s3.01-8.59,7.36-8.59c2.22,0,4.21,1.1,5.54,2.91v-2.5h2.57v16.05c0,5.48-3.83,7.19-7.87,7.19-2.81,0-4.72-.55-6.67-2.46Zm11.98-9v-7.22c-.89-1.44-2.88-2.67-4.93-2.67-3.32,0-5.3,2.64-5.3,6.3s1.99,6.3,5.3,6.3c2.05,0,4.04-1.27,4.93-2.7Z"/>
    <path class="cls-1" d="m866.09,247.55c.38.17.99.27,1.4.27,1.13,0,1.88-.38,2.46-1.75l1.1-2.5-6.91-16.7h2.77l5.51,13.55,5.48-13.55h2.81l-8.28,19.88c-.99,2.4-2.67,3.32-4.86,3.35-.55,0-1.4-.1-1.88-.24l.41-2.33Z"/>
    <path class="cls-1" d="m626.56,284.48v-22.83h14.96v2.53h-12.12v7.36h11.88v2.53h-11.88v10.4h-2.84Z"/>
    <path class="cls-1" d="m645.62,276.2c0-4.79,3.15-8.66,8.18-8.66s8.18,3.87,8.18,8.66-3.15,8.69-8.18,8.69-8.18-3.9-8.18-8.69Zm13.66,0c0-3.35-1.95-6.37-5.48-6.37s-5.51,3.01-5.51,6.37,1.99,6.4,5.51,6.4,5.48-3.01,5.48-6.4Z"/>
    <path class="cls-1" d="m667.46,284.48v-16.53h2.57v2.67c1.33-1.75,3.25-3.01,5.51-3.01v2.63c-.31-.07-.62-.1-1.03-.1-1.57,0-3.73,1.3-4.48,2.63v11.71h-2.57Z"/>
    <path class="cls-1" d="m690.29,284.48v-22.83h7.8c7.08,0,11.71,4.96,11.71,11.43s-4.62,11.4-11.71,11.4h-7.8Zm16.56-11.4c0-4.93-3.11-8.9-8.76-8.9h-4.96v17.76h4.96c5.54,0,8.76-3.97,8.76-8.86Z"/>
    <path class="cls-1" d="m715,263.88c0-.96.79-1.75,1.71-1.75s1.75.79,1.75,1.75-.79,1.71-1.75,1.71-1.71-.75-1.71-1.71Zm.45,20.6v-16.53h2.57v16.53h-2.57Z"/>
    <path class="cls-1" d="m724.41,288.72l1.3-1.92c1.37,1.64,3.01,2.26,5.37,2.26,2.74,0,5.3-1.33,5.3-4.96v-2.36c-1.2,1.68-3.22,2.94-5.54,2.94-4.31,0-7.36-3.22-7.36-8.56s3.01-8.59,7.36-8.59c2.22,0,4.21,1.1,5.54,2.91v-2.5h2.57v16.05c0,5.48-3.83,7.19-7.87,7.19-2.81,0-4.72-.55-6.67-2.46Zm11.98-9v-7.22c-.89-1.44-2.88-2.67-4.93-2.67-3.32,0-5.3,2.63-5.3,6.3s1.99,6.3,5.3,6.3c2.05,0,4.04-1.27,4.93-2.7Z"/>
    <path class="cls-1" d="m744.94,263.88c0-.96.79-1.75,1.71-1.75s1.75.79,1.75,1.75-.79,1.71-1.75,1.71-1.71-.75-1.71-1.71Zm.45,20.6v-16.53h2.57v16.53h-2.57Z"/>
    <path class="cls-1" d="m754.9,281.02v-10.81h-2.74v-2.26h2.74v-4.52h2.57v4.52h3.35v2.26h-3.35v10.27c0,1.23.55,2.12,1.68,2.12.72,0,1.4-.31,1.75-.68l.75,1.92c-.65.62-1.57,1.06-3.08,1.06-2.43,0-3.66-1.4-3.66-3.87Z"/>
    <path class="cls-1" d="m776.09,284.48v-1.88c-1.37,1.51-3.25,2.29-5.48,2.29-2.81,0-5.78-1.88-5.78-5.48s2.98-5.44,5.78-5.44c2.26,0,4.14.72,5.48,2.26v-2.98c0-2.22-1.78-3.49-4.18-3.49-1.99,0-3.59.72-5.07,2.29l-1.2-1.78c1.78-1.85,3.9-2.74,6.61-2.74,3.49,0,6.4,1.57,6.4,5.58v11.36h-2.57Zm0-3.49v-3.11c-.99-1.37-2.74-2.05-4.55-2.05-2.4,0-4.07,1.51-4.07,3.63s1.68,3.59,4.07,3.59c1.81,0,3.56-.68,4.55-2.05Z"/>
    <path class="cls-1" d="m785.09,284.48v-22.83h2.57v22.83h-2.57Z"/>
    <path class="cls-1" d="m632.21,325.55v-20.3h-7.22v-2.53h17.32v2.53h-7.26v20.3h-2.84Z"/>
    <path class="cls-1" d="m644.36,325.55v-16.53h2.57v2.67c1.33-1.75,3.25-3.01,5.51-3.01v2.63c-.31-.07-.62-.1-1.03-.1-1.57,0-3.73,1.3-4.48,2.63v11.71h-2.57Z"/>
    <path class="cls-1" d="m667.29,325.55v-1.88c-1.37,1.51-3.25,2.29-5.48,2.29-2.81,0-5.78-1.88-5.78-5.48s2.98-5.44,5.78-5.44c2.26,0,4.14.72,5.48,2.26v-2.98c0-2.22-1.78-3.49-4.18-3.49-1.99,0-3.59.72-5.07,2.29l-1.2-1.78c1.78-1.85,3.9-2.74,6.61-2.74,3.49,0,6.4,1.57,6.4,5.58v11.36h-2.57Zm0-3.49v-3.11c-.99-1.37-2.74-2.05-4.55-2.05-2.4,0-4.07,1.51-4.07,3.63s1.68,3.59,4.07,3.59c1.81,0,3.56-.68,4.55-2.05Z"/>
    <path class="cls-1" d="m687.45,325.55v-10.82c0-2.91-1.47-3.83-3.7-3.83-2.02,0-3.94,1.23-4.89,2.57v12.08h-2.57v-16.53h2.57v2.4c1.16-1.37,3.42-2.81,5.89-2.81,3.46,0,5.27,1.75,5.27,5.34v11.6h-2.57Z"/>
    <path class="cls-1" d="m695.01,323.36l1.33-1.85c1.1,1.27,3.18,2.36,5.44,2.36,2.53,0,3.9-1.2,3.9-2.84,0-4-10.23-1.54-10.23-7.67,0-2.57,2.22-4.76,6.16-4.76,2.81,0,4.79,1.06,6.13,2.4l-1.2,1.78c-.99-1.2-2.81-2.09-4.93-2.09-2.26,0-3.66,1.13-3.66,2.6,0,3.63,10.23,1.23,10.23,7.67,0,2.77-2.22,5-6.5,5-2.7,0-5-.82-6.67-2.6Z"/>
    <path class="cls-1" d="m714.38,325.55v-14.27h-2.74v-2.26h2.74v-1.27c0-3.39,1.85-5.37,4.79-5.37,1.3,0,2.46.31,3.49,1.27l-1.06,1.68c-.55-.48-1.2-.82-2.05-.82-1.68,0-2.6,1.16-2.6,3.25v1.27h3.35v2.26h-3.35v14.27h-2.57Z"/>
    <path class="cls-1" d="m723.69,317.26c0-4.79,3.15-8.66,8.18-8.66s8.18,3.87,8.18,8.66-3.15,8.69-8.18,8.69-8.18-3.9-8.18-8.69Zm13.66,0c0-3.35-1.95-6.37-5.48-6.37s-5.51,3.01-5.51,6.37,1.99,6.4,5.51,6.4,5.48-3.01,5.48-6.4Z"/>
    <path class="cls-1" d="m745.52,325.55v-16.53h2.57v2.67c1.33-1.75,3.25-3.01,5.51-3.01v2.63c-.31-.07-.62-.1-1.03-.1-1.57,0-3.73,1.3-4.48,2.63v11.71h-2.57Z"/>
    <path class="cls-1" d="m778.07,325.55v-11.23c0-2.09-.92-3.42-3.05-3.42-1.71,0-3.53,1.23-4.38,2.53v12.12h-2.57v-11.23c0-2.09-.89-3.42-3.05-3.42-1.68,0-3.46,1.23-4.35,2.57v12.08h-2.57v-16.53h2.57v2.4c.68-1.06,2.91-2.81,5.34-2.81s3.97,1.37,4.45,3.08c.92-1.51,3.15-3.08,5.54-3.08,3.01,0,4.62,1.68,4.62,5v11.95h-2.57Z"/>
    <path class="cls-1" d="m797.41,325.55v-1.88c-1.37,1.51-3.25,2.29-5.48,2.29-2.81,0-5.78-1.88-5.78-5.48s2.98-5.44,5.78-5.44c2.26,0,4.14.72,5.48,2.26v-2.98c0-2.22-1.78-3.49-4.18-3.49-1.99,0-3.59.72-5.07,2.29l-1.2-1.78c1.78-1.85,3.9-2.74,6.61-2.74,3.49,0,6.4,1.57,6.4,5.58v11.36h-2.57Zm0-3.49v-3.11c-.99-1.37-2.74-2.05-4.55-2.05-2.4,0-4.07,1.51-4.07,3.63s1.68,3.59,4.07,3.59c1.81,0,3.56-.68,4.55-2.05Z"/>
    <path class="cls-1" d="m806.92,322.09v-10.81h-2.74v-2.26h2.74v-4.52h2.57v4.52h3.35v2.26h-3.35v10.27c0,1.23.55,2.12,1.68,2.12.72,0,1.4-.31,1.75-.68l.75,1.92c-.65.62-1.57,1.06-3.08,1.06-2.43,0-3.66-1.4-3.66-3.87Z"/>
    <path class="cls-1" d="m817.33,304.94c0-.96.79-1.75,1.71-1.75s1.75.79,1.75,1.75-.79,1.71-1.75,1.71-1.71-.75-1.71-1.71Zm.45,20.6v-16.53h2.57v16.53h-2.57Z"/>
    <path class="cls-1" d="m825.81,317.26c0-4.79,3.15-8.66,8.18-8.66s8.18,3.87,8.18,8.66-3.15,8.69-8.18,8.69-8.18-3.9-8.18-8.69Zm13.66,0c0-3.35-1.95-6.37-5.48-6.37s-5.51,3.01-5.51,6.37,1.99,6.4,5.51,6.4,5.48-3.01,5.48-6.4Z"/>
    <path class="cls-1" d="m858.8,325.55v-10.82c0-2.91-1.47-3.83-3.7-3.83-2.02,0-3.94,1.23-4.89,2.57v12.08h-2.57v-16.53h2.57v2.4c1.16-1.37,3.42-2.81,5.89-2.81,3.46,0,5.27,1.75,5.27,5.34v11.6h-2.57Z"/>
  </g>
  <g>
    <rect class="cls-2" x="97.68" y="174.14" width="30.27" height="30.27"/>
    <rect class="cls-2" x="97.68" y="234.68" width="30.27" height="90.81"/>
    <polygon class="cls-2" points="188.49 295.22 249.03 295.22 249.03 325.48 158.22 325.48 158.22 174.14 188.49 174.14 188.49 204.41 249.03 204.41 249.03 234.68 188.49 234.68 188.49 295.22"/>
    <path class="cls-2" d="m370.11,174.14v30.27h-90.81v121.08h121.08v-151.35h-30.27Zm0,121.08h-60.54v-60.54h60.54v60.54Z"/>
    <polygon class="cls-2" points="460.91 295.22 521.45 295.22 521.45 325.48 430.64 325.48 430.64 174.14 460.91 174.14 460.91 204.41 521.45 204.41 521.45 234.68 460.91 234.68 460.91 295.22"/>
    <rect class="cls-2" x="551.72" y="295.22" width="30.27" height="30.27"/>
  </g>
</svg>